# xmcd
#
# Track frame offsets:
#	150
#	23662
#	44450
#	61987
#	80012
#	97637
#	113762
#	121650
#	152137
#	171850
#	187412
#	210150
#	226587
#	242075
#	266625
#	289837
#
# Disc length: 4164 seconds
#
# Revision: 1
# Processed by: cddbd v1.5PL3 Copyright (c) Steve Scherf et al.
# Submitted via: CDex 1.50Beta5
#
DISCID=cd104210
DTITLE=Taka Nanri - Oasis Quality and Relaxing
DYEAR=2002
DGENRE=R&B
TTITLE0=星空のエンジェル・クィーン
TTITLE1=こころ
TTITLE2=真夜中の旋律
TTITLE3=イエスタディ
TTITLE4=アウェイ・イン・ザ・マンガー
TTITLE5=ウィスパリング・ウイロウズ
TTITLE6=ザ・リング・オブ・ミステリアス・スターダスト
TTITLE7=幻想の彼方
TTITLE8=シー・ユースト・トゥ・ビー・マイ・ワールド
TTITLE9=菩提樹
TTITLE10=道
TTITLE11=ミッシェル
TTITLE12=ネイチャーズ・ハーモニー
TTITLE13=燃えつきて
TTITLE14=妖精
TTITLE15=イッツ・オンリー・ラブ
EXTD=
EXTT0=
EXTT1=
EXTT2=
EXTT3=
EXTT4=
EXTT5=
EXTT6=
EXTT7=
EXTT8=
EXTT9=
EXTT10=
EXTT11=
EXTT12=
EXTT13=
EXTT14=
EXTT15=
PLAYORDER=
